<?xml version="1.0" encoding="utf-8"?>
<!-- Generator: Adobe Illustrator 16.0.0, SVG Export Plug-In . SVG Version: 6.00 Build 0)  -->
<!DOCTYPE svg PUBLIC "-//W3C//DTD SVG 1.0//EN" "http://www.w3.org/TR/2001/REC-SVG-20010904/DTD/svg10.dtd">
<svg version="1.0" id="Layer_1" xmlns="http://www.w3.org/2000/svg" xmlns:xlink="http://www.w3.org/1999/xlink" x="0px" y="0px"
	 width="694.69px" height="323.894px" viewBox="0 0 694.69 323.894" enable-background="new 0 0 694.69 323.894"
	 xml:space="preserve">
<g>
	<g>
		
			<line fill="none" stroke="#6E6F71" stroke-width="2" stroke-linecap="round" stroke-linejoin="round" x1="512.997" y1="84.797" x2="599.049" y2="127.218"/>
		<g>
			<polygon fill="#6E6F71" points="589.489,131.624 588.913,129.707 598.36,126.88 594.85,117.663 596.721,116.953 600.994,128.179 
							"/>
		</g>
	</g>
</g>
<g>
	<g>
		
			<line fill="none" stroke="#6E6F71" stroke-width="2" stroke-linecap="round" stroke-linejoin="round" x1="284.352" y1="164.587" x2="394.106" y2="94.898"/>
		<g>
			<polygon fill="#6E6F71" points="392.896,105.355 390.959,104.851 393.459,95.312 383.761,93.515 384.128,91.547 395.938,93.737 
							"/>
		</g>
	</g>
</g>
<g>
	<g>
		
			<line fill="none" stroke="#6E6F71" stroke-width="2" stroke-linecap="round" stroke-linejoin="round" x1="344.695" y1="194.891" x2="390.648" y2="214.227"/>
		<g>
			<polygon fill="#6E6F71" points="347.631,205.001 349.457,204.18 345.402,195.19 354.665,191.803 353.975,189.924 
				342.695,194.052 			"/>
		</g>
		<g>
			<polygon fill="#6E6F71" points="381.367,219.195 380.678,217.316 389.94,213.931 385.885,204.939 387.711,204.118 
				392.646,215.069 			"/>
		</g>
	</g>
</g>
<path fill="#EDEDED" stroke="#111111" stroke-miterlimit="10" d="M511.564,63.923c-7.318,0-13.656,4.184-16.766,10.286
	c-3.108-6.103-9.446-10.286-16.765-10.286c-6.357,0-11.974,3.157-15.379,7.984c-3.404-4.827-9.021-7.984-15.377-7.984
	c-7.318,0-13.655,4.183-16.766,10.286c-3.108-6.104-9.447-10.286-16.766-10.286c-10.389,0-18.81,8.422-18.81,18.812
	c0,10.388,8.421,18.81,18.81,18.81c7.318,0,13.657-4.183,16.766-10.285c3.109,6.104,9.447,10.285,16.766,10.285
	c6.356,0,11.973-3.156,15.377-7.983c3.405,4.827,9.021,7.983,15.379,7.983c7.318,0,13.655-4.182,16.765-10.285
	c3.108,6.104,9.447,10.285,16.766,10.285c10.389,0,18.811-8.421,18.811-18.81C530.375,72.347,521.953,63.923,511.564,63.923z"/>
<g>
	<g>
		
			<line fill="none" stroke="#6E6F71" stroke-width="2" stroke-linecap="round" stroke-linejoin="round" x1="167.161" y1="163.912" x2="214.118" y2="163.912"/>
		<g>
			<polygon fill="#6E6F71" points="207.491,172.092 206.126,170.627 213.35,163.914 206.126,157.199 207.491,155.734 
				216.287,163.914 			"/>
		</g>
	</g>
</g>
<g>
	<g>
		<path fill="#EDEDED" stroke="#111111" stroke-miterlimit="10" d="M678.204,148.308c0-1.331-0.986-2.966-2.192-3.633l-42.8-23.679
			c-1.205-0.669-3.248-0.805-4.539-0.307l-52.015,20.099c-1.292,0.498-2.349,1.995-2.349,3.327v36.078
			c0,1.331,0.986,2.966,2.192,3.633l42.798,23.68c1.205,0.667,3.248,0.805,4.54,0.307l52.016-20.099
			c1.292-0.498,2.349-1.997,2.349-3.328V148.308z"/>
		<path fill="#EDEDED" stroke="#111111" stroke-width="5" stroke-linejoin="round" stroke-miterlimit="10" d="M678.204,148.308
			c0-1.331-0.986-2.966-2.192-3.633l-42.8-23.679c-1.205-0.669-3.248-0.805-4.539-0.307l-52.015,20.099
			c-1.292,0.498-2.349,1.995-2.349,3.327v36.078c0,1.331,0.986,2.966,2.192,3.633l42.798,23.68c1.205,0.667,3.248,0.805,4.54,0.307
			l52.016-20.099c1.292-0.498,2.349-1.997,2.349-3.328V148.308z"/>
	</g>
	<g>
		<polygon fill="#203D77" stroke="#0C0C0C" stroke-width="2" stroke-miterlimit="10" points="663.008,178.12 630.203,159.969 
			590.77,175.205 623.577,193.356 		"/>
		<polygon fill="#4165B0" stroke="#0C0C0C" stroke-width="2" stroke-miterlimit="10" points="663.008,169.114 630.203,150.964 
			590.77,166.199 623.577,184.351 		"/>
		<polygon fill="#87A2D4" stroke="#0C0C0C" stroke-width="2" stroke-miterlimit="10" points="663.008,161.129 630.203,142.977 
			590.77,158.213 623.577,176.364 		"/>
		
			<polygon opacity="0.7" fill="#FFFFFF" stroke="#0C0C0C" stroke-width="2" stroke-linejoin="round" stroke-miterlimit="10" points="
			663.008,152.123 630.203,133.97 590.77,149.207 623.577,167.358 		"/>
	</g>
</g>
<g>
	<g>
		
			<line fill="none" stroke="#6E6F71" stroke-width="2" stroke-linecap="round" stroke-linejoin="round" x1="66.311" y1="207.428" x2="66.311" y2="179.345"/>
		<g>
			<polygon fill="#6E6F71" points="74.491,185.972 73.026,187.336 66.313,180.112 59.598,187.336 58.133,185.972 66.313,177.176 			
				"/>
		</g>
	</g>
</g>
<g>
	<g>
		
			<line fill="none" stroke="#6E6F71" stroke-width="2" stroke-linecap="round" stroke-linejoin="round" x1="66.312" y1="150.388" x2="66.312" y2="122.305"/>
		<g>
			<polygon fill="#6E6F71" points="74.491,128.932 73.026,130.296 66.313,123.072 59.599,130.296 58.134,128.932 66.313,120.136 			
				"/>
		</g>
	</g>
</g>
<g>
	<g>
		
			<line fill="none" stroke="#6E6F71" stroke-width="2" stroke-linecap="round" stroke-linejoin="round" x1="100.15" y1="105.226" x2="138.388" y2="152.84"/>
		<g>
			<polygon fill="#6E6F71" points="127.86,152.795 128.148,150.813 137.905,152.243 138.618,142.406 140.614,142.553 
				139.744,154.532 			"/>
		</g>
	</g>
</g>
<g>
	<g>
		
			<line fill="none" stroke="#6E6F71" stroke-width="2" stroke-linecap="round" stroke-linejoin="round" x1="98.6" y1="221.01" x2="138.329" y2="174.934"/>
		<g>
			<polygon fill="#6E6F71" points="140.197,185.294 138.196,185.371 137.83,175.517 128.027,176.603 127.809,174.612 
				139.747,173.292 			"/>
		</g>
	</g>
</g>
<circle fill="#EDEDED" stroke="#111111" stroke-width="5" stroke-miterlimit="10" cx="66.311" cy="68.352" r="50.052"/>
<g>
	<g>
		
			<rect x="28.821" y="75.811" transform="matrix(0.51 0.8602 -0.8602 0.51 90.5545 -4.4713)" fill="#2D9B47" width="40.761" height="2.875"/>
		
			<rect x="37.336" y="67.397" transform="matrix(0.9492 0.3146 -0.3146 0.9492 25.0239 -17.3672)" fill="#2D9B47" width="57.951" height="2.875"/>
		
			<rect x="62.598" y="58.499" transform="matrix(0.5004 0.8658 -0.8658 0.5004 93.5556 -42.2662)" fill="#2D9B47" width="41.611" height="2.876"/>
	</g>
	<circle fill="#231F20" cx="59.597" cy="94.779" r="4.784"/>
	<circle fill="#231F20" cx="38.807" cy="59.719" r="4.784"/>
	<circle fill="#231F20" cx="93.816" cy="77.95" r="4.784"/>
	<circle fill="#231F20" cx="72.991" cy="41.925" r="4.784"/>
</g>
<circle fill="#EDEDED" stroke="#111111" stroke-width="5" stroke-miterlimit="10" cx="66.311" cy="257.48" r="50.052"/>
<g>
	<g>
		<path fill="#2D9B47" d="M66.311,268.983c-6.343,0-11.503-5.16-11.503-11.504s5.161-11.504,11.503-11.504
			c6.343,0,11.504,5.16,11.504,11.504S72.654,268.983,66.311,268.983z M66.311,248.852c-4.757,0-8.627,3.87-8.627,8.628
			s3.871,8.628,8.627,8.628c4.757,0,8.628-3.87,8.628-8.628S71.068,248.852,66.311,248.852z"/>
	</g>
	<circle fill="#2D9B47" cx="66.312" cy="257.479" r="5.363"/>
</g>
<polygon fill="#47B862" points="79.576,150.646 79.576,177.176 53.046,177.176 "/>
<polygon fill="#2B6F3A" points="79.576,150.646 53.046,177.176 53.046,150.646 "/>
<g>
	
		<rect x="53.046" y="150.646" fill="none" stroke="#231F20" stroke-width="2" stroke-miterlimit="10" width="26.53" height="26.529"/>
	<line fill="none" stroke="#231F20" stroke-width="2" stroke-miterlimit="10" x1="53.046" y1="177.176" x2="79.576" y2="150.646"/>
</g>
<polygon fill="#47B862" points="149.125,182.671 130.366,163.911 149.125,145.152 "/>
<polygon fill="#FDD314" points="149.125,182.671 149.125,145.152 167.885,163.911 "/>
<g>
	
		<rect x="135.86" y="150.647" transform="matrix(0.7071 0.7071 -0.7071 0.7071 159.5865 -57.4384)" fill="none" stroke="#231F20" stroke-width="2" stroke-miterlimit="10" width="26.53" height="26.529"/>
	
		<line fill="none" stroke="#231F20" stroke-width="2" stroke-miterlimit="10" x1="149.125" y1="145.152" x2="149.125" y2="182.671"/>
</g>
<g>
	
		<rect x="231.352" y="204.117" fill="#F2F2F2" stroke="#231F20" stroke-width="3" stroke-miterlimit="10" width="104" height="42.92"/>
	
		<line fill="#F2F2F2" stroke="#231F20" stroke-width="2" stroke-miterlimit="10" x1="283.352" y1="247.037" x2="283.352" y2="206.05"/>
	
		<line fill="#F2F2F2" stroke="#231F20" stroke-width="2" stroke-miterlimit="10" x1="256.352" y1="246.07" x2="256.352" y2="205.083"/>
	
		<line fill="#F2F2F2" stroke="#231F20" stroke-width="2" stroke-miterlimit="10" x1="309.352" y1="246.07" x2="309.352" y2="205.083"/>
	
		<line fill="#F2F2F2" stroke="#231F20" stroke-width="2" stroke-miterlimit="10" x1="231.352" y1="234.831" x2="335.352" y2="234.831"/>
	
		<line fill="#F2F2F2" stroke="#231F20" stroke-width="2" stroke-miterlimit="10" x1="231.352" y1="220.975" x2="335.352" y2="220.975"/>
</g>
<circle fill="#EDEDED" stroke="#111111" stroke-width="5" stroke-miterlimit="10" cx="283.352" cy="163.822" r="64.212"/>
<g>
	<g>
		<path fill="#231F20" d="M309.46,198.402c-4.496,0-8.154-3.657-8.154-8.153c0-4.497,3.658-8.154,8.154-8.154
			c4.497,0,8.154,3.657,8.154,8.154C317.614,194.745,313.957,198.402,309.46,198.402z M309.46,184.133
			c-3.372,0-6.115,2.743-6.115,6.116c0,3.372,2.743,6.115,6.115,6.115s6.115-2.743,6.115-6.115
			C315.575,186.876,312.832,184.133,309.46,184.133z"/>
	</g>
	<circle fill="#231F20" cx="309.46" cy="190.249" r="3.801"/>
</g>
<g>
	<g>
		<path fill="#231F20" d="M261.719,140.386c-4.496,0-8.154-3.657-8.154-8.153c0-4.497,3.658-8.154,8.154-8.154
			s8.153,3.657,8.153,8.154C269.872,136.729,266.215,140.386,261.719,140.386z M261.719,126.116c-3.373,0-6.115,2.743-6.115,6.116
			c0,3.372,2.742,6.115,6.115,6.115c3.371,0,6.115-2.743,6.115-6.115C267.834,128.859,265.09,126.116,261.719,126.116z"/>
	</g>
	<circle fill="#231F20" cx="261.719" cy="132.232" r="3.801"/>
</g>
<g>
	<g>
		
			<rect x="296.033" y="124.219" transform="matrix(0.7393 0.6733 -0.6733 0.7393 170.9279 -163.9945)" fill="#F8971D" width="2.486" height="29.102"/>
		
			<rect x="297.334" y="142.044" transform="matrix(0.2072 0.9783 -0.9783 0.2072 387.7658 -191.9181)" fill="#F8971D" width="29.92" height="2.487"/>
	</g>
	<circle fill="#231F20" cx="308.321" cy="127.767" r="4.137"/>
	<circle fill="#231F20" cx="315.471" cy="158.569" r="4.137"/>
	<circle fill="#231F20" cx="287.354" cy="149.427" r="4.137"/>
</g>
<g>
	<g>
		
			<rect x="245.522" y="192.577" transform="matrix(0.9567 0.291 -0.291 0.9567 67.7032 -67.628)" fill="#F8971D" width="31.419" height="2.485"/>
		
			<rect x="248.574" y="157.379" transform="matrix(0.9748 0.2233 -0.2233 0.9748 45.0435 -51.3923)" fill="#F8971D" width="2.485" height="32.279"/>
		
			<rect x="251.654" y="164.345" transform="matrix(0.9014 0.4329 -0.4329 0.9014 98.2658 -100.4217)" fill="#F8971D" width="36.022" height="2.484"/>
		
			<rect x="279.84" y="172.487" transform="matrix(0.933 0.3599 -0.3599 0.933 85.7362 -88.7052)" fill="#F8971D" width="2.483" height="26.801"/>
	</g>
	<circle fill="#231F20" cx="276.261" cy="198.391" r="4.133"/>
	<circle fill="#231F20" cx="246.202" cy="189.248" r="4.133"/>
	<circle fill="#231F20" cx="285.902" cy="173.384" r="4.133"/>
	<circle fill="#231F20" cx="253.43" cy="157.789" r="4.133"/>
</g>
<g>
	<g>
		<g>
			<path fill="#FDD314" d="M252.899,253.078c0-2.086-1.212-4.994-2.694-6.463l-4.385-4.346c-1.482-1.469-3.907-1.469-5.389,0
				l-4.385,4.346c-1.482,1.469-2.694,4.377-2.694,6.463v14.984c0,2.086,1.707,3.793,3.793,3.793h11.962
				c2.086,0,3.792-1.707,3.792-3.793V253.078z"/>
			<path fill="#FDD314" stroke="#231F20" stroke-miterlimit="10" d="M252.899,253.078c0-2.086-1.212-4.994-2.694-6.463l-4.385-4.346
				c-1.482-1.469-3.907-1.469-5.389,0l-4.385,4.346c-1.482,1.469-2.694,4.377-2.694,6.463v14.984c0,2.086,1.707,3.793,3.793,3.793
				h11.962c2.086,0,3.792-1.707,3.792-3.793V253.078z"/>
		</g>
		<g>
			<path fill="#FDD314" d="M279.392,253.078c0-2.086-1.212-4.994-2.694-6.463l-4.385-4.346c-1.482-1.469-3.907-1.469-5.389,0
				l-4.385,4.346c-1.482,1.469-2.694,4.377-2.694,6.463v14.984c0,2.086,1.707,3.793,3.793,3.793h11.962
				c2.086,0,3.792-1.707,3.792-3.793V253.078z"/>
			<path fill="#FDD314" stroke="#231F20" stroke-miterlimit="10" d="M279.392,253.078c0-2.086-1.212-4.994-2.694-6.463l-4.385-4.346
				c-1.482-1.469-3.907-1.469-5.389,0l-4.385,4.346c-1.482,1.469-2.694,4.377-2.694,6.463v14.984c0,2.086,1.707,3.793,3.793,3.793
				h11.962c2.086,0,3.792-1.707,3.792-3.793V253.078z"/>
		</g>
		<g>
			<path fill="#FDD314" d="M305.884,253.078c0-2.086-1.212-4.994-2.693-6.463l-4.386-4.346c-1.481-1.469-3.906-1.469-5.389,0
				l-4.385,4.346c-1.482,1.469-2.694,4.377-2.694,6.463v14.984c0,2.086,1.707,3.793,3.793,3.793h11.962
				c2.086,0,3.792-1.707,3.792-3.793V253.078z"/>
			<path fill="#FDD314" stroke="#231F20" stroke-miterlimit="10" d="M305.884,253.078c0-2.086-1.212-4.994-2.693-6.463l-4.386-4.346
				c-1.481-1.469-3.906-1.469-5.389,0l-4.385,4.346c-1.482,1.469-2.694,4.377-2.694,6.463v14.984c0,2.086,1.707,3.793,3.793,3.793
				h11.962c2.086,0,3.792-1.707,3.792-3.793V253.078z"/>
		</g>
		<g>
			<path fill="#FDD314" d="M332.377,253.078c0-2.086-1.212-4.994-2.694-6.463l-4.385-4.346c-1.482-1.469-3.907-1.469-5.389,0
				l-4.385,4.346c-1.482,1.469-2.694,4.377-2.694,6.463v14.984c0,2.086,1.707,3.793,3.793,3.793h11.962
				c2.086,0,3.792-1.707,3.792-3.793V253.078z"/>
			<path fill="#FDD314" stroke="#231F20" stroke-miterlimit="10" d="M332.377,253.078c0-2.086-1.212-4.994-2.694-6.463l-4.385-4.346
				c-1.482-1.469-3.907-1.469-5.389,0l-4.385,4.346c-1.482,1.469-2.694,4.377-2.694,6.463v14.984c0,2.086,1.707,3.793,3.793,3.793
				h11.962c2.086,0,3.792-1.707,3.792-3.793V253.078z"/>
		</g>
	</g>
	<circle fill="#FFFFFF" stroke="#231F20" stroke-miterlimit="10" cx="243.125" cy="247.665" r="2.95"/>
	<g>
		<path fill="#E7E7E7" d="M250.118,256.028c0-1.391-1.138-2.528-2.529-2.528h-8.876c-1.391,0-2.528,1.138-2.528,2.528v10.96
			c0,1.391,1.138,2.529,2.528,2.529h8.876c1.391,0,2.529-1.139,2.529-2.529V256.028z"/>
		<path fill="none" stroke="#231F20" stroke-miterlimit="10" d="M250.118,256.028c0-1.391-1.138-2.528-2.529-2.528h-8.876
			c-1.391,0-2.528,1.138-2.528,2.528v10.96c0,1.391,1.138,2.529,2.528,2.529h8.876c1.391,0,2.529-1.139,2.529-2.529V256.028z"/>
	</g>
	<circle fill="#FFFFFF" stroke="#231F20" stroke-miterlimit="10" cx="269.618" cy="247.665" r="2.95"/>
	<g>
		<path fill="#E7E7E7" d="M276.61,256.028c0-1.391-1.138-2.528-2.529-2.528h-8.876c-1.391,0-2.528,1.138-2.528,2.528v10.96
			c0,1.391,1.138,2.529,2.528,2.529h8.876c1.391,0,2.529-1.139,2.529-2.529V256.028z"/>
		<path fill="none" stroke="#231F20" stroke-miterlimit="10" d="M276.61,256.028c0-1.391-1.138-2.528-2.529-2.528h-8.876
			c-1.391,0-2.528,1.138-2.528,2.528v10.96c0,1.391,1.138,2.529,2.528,2.529h8.876c1.391,0,2.529-1.139,2.529-2.529V256.028z"/>
	</g>
	<circle fill="#FFFFFF" stroke="#231F20" stroke-miterlimit="10" cx="296.11" cy="247.665" r="2.95"/>
	<g>
		<path fill="#E7E7E7" d="M303.103,256.028c0-1.391-1.138-2.528-2.528-2.528h-8.876c-1.391,0-2.528,1.138-2.528,2.528v10.96
			c0,1.391,1.138,2.529,2.528,2.529h8.876c1.391,0,2.528-1.139,2.528-2.529V256.028z"/>
		<path fill="none" stroke="#231F20" stroke-miterlimit="10" d="M303.103,256.028c0-1.391-1.138-2.528-2.528-2.528h-8.876
			c-1.391,0-2.528,1.138-2.528,2.528v10.96c0,1.391,1.138,2.529,2.528,2.529h8.876c1.391,0,2.528-1.139,2.528-2.529V256.028z"/>
	</g>
	<circle fill="#FFFFFF" stroke="#231F20" stroke-miterlimit="10" cx="322.604" cy="247.665" r="2.95"/>
	<g>
		<path fill="#E7E7E7" d="M329.596,256.028c0-1.391-1.138-2.528-2.529-2.528h-8.876c-1.391,0-2.528,1.138-2.528,2.528v10.96
			c0,1.391,1.138,2.529,2.528,2.529h8.876c1.391,0,2.529-1.139,2.529-2.529V256.028z"/>
		<path fill="none" stroke="#231F20" stroke-miterlimit="10" d="M329.596,256.028c0-1.391-1.138-2.528-2.529-2.528h-8.876
			c-1.391,0-2.528,1.138-2.528,2.528v10.96c0,1.391,1.138,2.529,2.528,2.529h8.876c1.391,0,2.529-1.139,2.529-2.529V256.028z"/>
	</g>
</g>
<g>
	<path fill="#EDEDED" stroke="#111111" stroke-width="5" stroke-linejoin="round" stroke-miterlimit="10" d="M530.664,272.64
		c0,3.646-1.8,6.63-4,6.63H398.647c-2.2,0-4-2.984-4-6.63v-55.572c0-3.646,1.8-6.63,4-6.63h128.017c2.2,0,4,2.984,4,6.63V272.64z"/>
	<path fill="#EDEDED" stroke="#111111" stroke-width="5" stroke-linejoin="round" stroke-miterlimit="10" d="M530.664,272.64
		c0,3.646-1.8,6.63-4,6.63H398.647c-2.2,0-4-2.984-4-6.63v-55.572c0-3.646,1.8-6.63,4-6.63h128.017c2.2,0,4,2.984,4,6.63V272.64z"/>
</g>
<line fill="none" stroke="#8A5E3C" stroke-width="3" stroke-linecap="round" stroke-linejoin="round" stroke-miterlimit="10" stroke-dasharray="4,5" x1="439.331" y1="98.318" x2="454.331" y2="66.985"/>
<path fill="none" stroke="#F89622" stroke-width="5" stroke-linecap="round" stroke-linejoin="bevel" stroke-miterlimit="10" d="
	M473.863,100.608c0.312-33.623,33.741,5.204,0.312-33.623"/>
<polygon fill="#231F20" points="511.997,76.156 514.154,80.527 518.978,81.229 515.488,84.631 516.311,89.437 511.997,87.168 
	507.682,89.437 508.505,84.631 505.015,81.229 509.839,80.527 "/>
<path fill="none" stroke="#F15B2A" stroke-width="4" stroke-miterlimit="10" d="M405.566,65.79
	c25.432,21.195-13.384,22.197,19.616,31.862"/>
<path fill="none" stroke="#111111" stroke-width="5" stroke-miterlimit="10" d="M511.563,63.923
	c-7.318,0-13.656,4.184-16.766,10.286c-3.108-6.103-9.446-10.286-16.765-10.286c-6.357,0-11.974,3.157-15.379,7.984
	c-3.404-4.827-9.021-7.984-15.377-7.984c-7.318,0-13.655,4.183-16.766,10.286c-3.108-6.104-9.447-10.286-16.766-10.286
	c-10.389,0-18.81,8.422-18.81,18.812c0,10.388,8.421,18.81,18.81,18.81c7.318,0,13.657-4.183,16.766-10.285
	c3.109,6.104,9.447,10.285,16.766,10.285c6.356,0,11.973-3.156,15.377-7.983c3.405,4.827,9.021,7.983,15.379,7.983
	c7.318,0,13.655-4.182,16.765-10.285c3.108,6.104,9.447,10.285,16.766,10.285c10.389,0,18.811-8.421,18.811-18.81
	C530.374,72.347,521.952,63.923,511.563,63.923z"/>
<rect x="402.783" y="218.614" fill="#EE3559" width="119.314" height="9.503"/>
<rect x="429.164" y="233.193" fill="#EE3559" width="92.934" height="9.503"/>
<rect x="412.164" y="247.772" fill="#EE3559" width="73" height="9.504"/>
<rect x="402.783" y="262.352" fill="#EE3559" width="102.232" height="9.504"/>
<g>
	<path fill="#010101" d="M128.682,72.236l3.12-10.061h2.12l3.12,10.061l3.52-10.061h2.54l-4.88,13.98h-2.34l-2.94-9.58h-0.16
		l-2.94,9.58h-2.34l-4.88-13.98h2.54L128.682,72.236z"/>
	<path fill="#010101" d="M146.14,72.977l-1.4,3.18h-2.52l6.16-13.98h2.52l6.16,13.98h-2.52l-1.4-3.18H146.14z M152.18,70.797
		l-2.54-5.761l-2.54,5.761H152.18z"/>
	<path fill="#010101" d="M163.036,76.156h-2.4v-5.52l-5.2-8.461h2.58l3.82,6.36l3.82-6.36h2.58l-5.2,8.461V76.156z"/>
	<path fill="#010101" d="M173.875,64.016c-0.687,0-1.25,0.141-1.69,0.42c-0.44,0.281-0.66,0.704-0.66,1.271c0,0.567,0.22,1,0.66,1.3
		c0.44,0.301,1.376,0.624,2.81,0.971c1.433,0.347,2.513,0.833,3.24,1.459c0.727,0.627,1.09,1.551,1.09,2.771s-0.46,2.21-1.38,2.97
		c-0.92,0.76-2.127,1.141-3.62,1.141c-2.187,0-4.127-0.754-5.82-2.26l1.48-1.78c1.414,1.227,2.88,1.84,4.4,1.84
		c0.76,0,1.363-0.163,1.81-0.489c0.446-0.327,0.67-0.761,0.67-1.301s-0.21-0.96-0.63-1.26c-0.42-0.301-1.143-0.573-2.17-0.82
		c-1.027-0.246-1.807-0.473-2.34-0.68c-0.534-0.207-1.007-0.477-1.42-0.811c-0.827-0.626-1.24-1.586-1.24-2.879
		c0-1.294,0.47-2.291,1.41-2.99c0.94-0.701,2.103-1.051,3.49-1.051c0.894,0,1.78,0.146,2.66,0.44s1.64,0.706,2.28,1.239l-1.26,1.781
		c-0.414-0.373-0.973-0.681-1.68-0.92C175.259,64.137,174.562,64.016,173.875,64.016z"/>
</g>
<g>
	<path fill="#010101" d="M133.827,249.861h2.36v13.98h-2.56l-7.92-10.2v10.2h-2.36v-13.98h2.36l8.12,10.44V249.861z"/>
	<path fill="#010101" d="M151.591,261.912c-1.414,1.38-3.16,2.07-5.24,2.07s-3.827-0.69-5.24-2.07c-1.414-1.381-2.12-3.1-2.12-5.16
		s0.707-3.78,2.12-5.16c1.413-1.38,3.16-2.07,5.24-2.07s3.827,0.69,5.24,2.07c1.413,1.38,2.12,3.1,2.12,5.16
		S153.004,260.531,151.591,261.912z M149.861,253.162c-0.954-0.986-2.124-1.48-3.51-1.48s-2.557,0.494-3.51,1.48
		c-0.954,0.986-1.43,2.184-1.43,3.59s0.477,2.604,1.43,3.59c0.953,0.986,2.123,1.48,3.51,1.48s2.557-0.494,3.51-1.48
		c0.953-0.986,1.43-2.184,1.43-3.59S150.814,254.148,149.861,253.162z"/>
	<path fill="#010101" d="M167.065,251.691c1.347,1.221,2.02,2.918,2.02,5.09c0,2.174-0.653,3.895-1.96,5.16
		c-1.307,1.268-3.307,1.9-6,1.9h-4.64v-13.98h4.8C163.792,249.861,165.718,250.472,167.065,251.691z M166.705,256.842
		c0-3.2-1.833-4.8-5.5-4.8h-2.36v9.579h2.62c1.693,0,2.99-0.402,3.89-1.209S166.705,258.415,166.705,256.842z"/>
	<path fill="#010101" d="M181.749,249.861v2.221h-7.46v3.699h6.7v2.101h-6.7v3.739h7.7v2.221h-10.06v-13.98H181.749z"/>
	<path fill="#010101" d="M189.173,251.701c-0.687,0-1.25,0.141-1.69,0.42c-0.44,0.281-0.66,0.704-0.66,1.271
		c0,0.567,0.22,1,0.66,1.3c0.44,0.301,1.376,0.624,2.81,0.971c1.433,0.347,2.513,0.833,3.24,1.459
		c0.727,0.627,1.09,1.551,1.09,2.771s-0.46,2.21-1.38,2.97c-0.92,0.76-2.127,1.141-3.62,1.141c-2.187,0-4.127-0.754-5.82-2.26
		l1.48-1.78c1.414,1.227,2.88,1.84,4.4,1.84c0.76,0,1.363-0.163,1.81-0.489c0.446-0.327,0.67-0.761,0.67-1.301s-0.21-0.96-0.63-1.26
		c-0.42-0.301-1.143-0.573-2.17-0.82c-1.027-0.246-1.807-0.473-2.34-0.68c-0.534-0.207-1.007-0.477-1.42-0.811
		c-0.827-0.626-1.24-1.586-1.24-2.879c0-1.294,0.47-2.291,1.41-2.99c0.94-0.701,2.103-1.051,3.49-1.051
		c0.894,0,1.78,0.146,2.66,0.44s1.64,0.706,2.28,1.239l-1.26,1.781c-0.414-0.373-0.973-0.681-1.68-0.92
		C190.556,251.822,189.859,251.701,189.173,251.701z"/>
</g>
<g>
	<path fill="#010101" d="M250.679,79.855c-0.687,0-1.25,0.14-1.69,0.42c-0.44,0.279-0.66,0.703-0.66,1.27s0.22,1,0.66,1.301
		c0.44,0.299,1.376,0.623,2.81,0.969c1.433,0.348,2.513,0.834,3.24,1.461s1.09,1.55,1.09,2.77c0,1.221-0.46,2.21-1.38,2.971
		c-0.92,0.76-2.127,1.14-3.62,1.14c-2.187,0-4.127-0.753-5.82-2.261l1.48-1.779c1.414,1.227,2.88,1.84,4.4,1.84
		c0.76,0,1.363-0.163,1.81-0.49c0.446-0.326,0.67-0.76,0.67-1.3s-0.21-0.96-0.63-1.26c-0.42-0.3-1.143-0.573-2.17-0.82
		s-1.807-0.474-2.34-0.68c-0.534-0.206-1.007-0.477-1.42-0.81c-0.827-0.627-1.24-1.587-1.24-2.881c0-1.293,0.47-2.289,1.41-2.99
		c0.94-0.699,2.103-1.049,3.49-1.049c0.894,0,1.78,0.146,2.66,0.439s1.64,0.707,2.28,1.24l-1.26,1.779
		c-0.414-0.373-0.973-0.68-1.68-0.92C252.062,79.975,251.365,79.855,250.679,79.855z"/>
	<path fill="#010101" d="M258.502,91.995V78.016h2.36v6.06h6.94v-6.06h2.36v13.979h-2.36v-5.72h-6.94v5.72H258.502z"/>
	<path fill="#010101" d="M275.522,88.814l-1.4,3.181h-2.52l6.16-13.979h2.52l6.16,13.979h-2.52l-1.4-3.181H275.522z M281.562,86.635
		l-2.54-5.76l-2.54,5.76H281.562z"/>
	<path fill="#010101" d="M297.336,79.235c0.973,0.813,1.46,2.066,1.46,3.76s-0.497,2.934-1.49,3.72
		c-0.994,0.787-2.517,1.18-4.57,1.18h-2.48v4.101h-2.36V78.016h4.8C294.816,78.016,296.363,78.422,297.336,79.235z M295.666,85.005
		c0.473-0.5,0.71-1.233,0.71-2.2s-0.3-1.649-0.9-2.05c-0.6-0.399-1.54-0.6-2.82-0.6h-2.4v5.6h2.74
		C294.303,85.755,295.192,85.505,295.666,85.005z"/>
	<path fill="#010101" d="M310.742,78.016v2.22h-7.46v3.7h6.7v2.1h-6.7v3.74h7.7v2.22h-10.06V78.016H310.742z"/>
	<path fill="#010101" d="M317.766,79.855c-0.687,0-1.25,0.14-1.69,0.42c-0.44,0.279-0.66,0.703-0.66,1.27s0.22,1,0.66,1.301
		c0.44,0.299,1.376,0.623,2.81,0.969c1.433,0.348,2.513,0.834,3.24,1.461s1.09,1.55,1.09,2.77c0,1.221-0.46,2.21-1.38,2.971
		c-0.92,0.76-2.127,1.14-3.62,1.14c-2.187,0-4.127-0.753-5.82-2.261l1.48-1.779c1.414,1.227,2.88,1.84,4.4,1.84
		c0.76,0,1.363-0.163,1.81-0.49c0.446-0.326,0.67-0.76,0.67-1.3s-0.21-0.96-0.63-1.26c-0.42-0.3-1.143-0.573-2.17-0.82
		s-1.807-0.474-2.34-0.68c-0.534-0.206-1.007-0.477-1.42-0.81c-0.827-0.627-1.24-1.587-1.24-2.881c0-1.293,0.47-2.289,1.41-2.99
		c0.94-0.699,2.103-1.049,3.49-1.049c0.894,0,1.78,0.146,2.66,0.439s1.64,0.707,2.28,1.24l-1.26,1.779
		c-0.414-0.373-0.973-0.68-1.68-0.92C319.149,79.975,318.452,79.855,317.766,79.855z"/>
</g>
<g>
	<path fill="#010101" d="M429.604,189.765c0.974,0.813,1.46,2.066,1.46,3.76s-0.496,2.934-1.49,3.72
		c-0.993,0.787-2.517,1.18-4.57,1.18h-2.479v4.101h-2.36v-13.979h4.801C427.083,188.545,428.63,188.951,429.604,189.765z
		 M427.934,195.534c0.474-0.5,0.71-1.233,0.71-2.2s-0.3-1.649-0.9-2.05c-0.6-0.399-1.539-0.6-2.819-0.6h-2.4v5.6h2.74
		C426.571,196.284,427.46,196.034,427.934,195.534z"/>
	<path fill="#010101" d="M443.009,188.545v2.22h-7.459v3.7h6.699v2.1h-6.699v3.74h7.699v2.22h-10.06v-13.979H443.009z"/>
	<path fill="#010101" d="M456.912,193.084c0,2.307-1.007,3.76-3.02,4.36l3.66,5.08h-3l-3.341-4.7h-3.101v4.7h-2.359v-13.979h5.2
		c2.133,0,3.659,0.359,4.58,1.08C456.452,190.344,456.912,191.498,456.912,193.084z M453.771,195.064
		c0.48-0.413,0.721-1.076,0.721-1.99c0-0.913-0.247-1.54-0.74-1.88s-1.373-0.51-2.641-0.51h-3v5h2.941
		C452.384,195.685,453.292,195.479,453.771,195.064z"/>
	<path fill="#010101" d="M459.618,188.545h2.36v13.979h-2.36V188.545z"/>
	<path fill="#010101" d="M477.011,200.594c-1.413,1.381-3.16,2.07-5.24,2.07s-3.826-0.689-5.239-2.07
		c-1.413-1.379-2.12-3.1-2.12-5.159s0.707-3.78,2.12-5.16s3.159-2.069,5.239-2.069s3.827,0.689,5.24,2.069
		c1.414,1.38,2.12,3.101,2.12,5.16S478.425,199.215,477.011,200.594z M475.282,191.844c-0.954-0.986-2.124-1.479-3.511-1.479
		s-2.557,0.493-3.51,1.479c-0.953,0.987-1.43,2.184-1.43,3.591s0.477,2.604,1.43,3.59c0.953,0.987,2.123,1.479,3.51,1.479
		s2.557-0.492,3.511-1.479c0.953-0.986,1.43-2.183,1.43-3.59S476.235,192.831,475.282,191.844z"/>
	<path fill="#010101" d="M492.085,190.375c1.347,1.219,2.02,2.916,2.02,5.09c0,2.173-0.652,3.893-1.959,5.16
		c-1.308,1.266-3.308,1.899-6,1.899h-4.641v-13.979h4.801C488.812,188.545,490.739,189.154,492.085,190.375z M491.726,195.524
		c0-3.2-1.834-4.8-5.5-4.8h-2.361v9.58h2.621c1.693,0,2.99-0.403,3.89-1.211C491.275,198.288,491.726,197.098,491.726,195.524z"/>
	<path fill="#010101" d="M500.658,190.385c-0.688,0-1.25,0.14-1.69,0.42c-0.44,0.279-0.66,0.703-0.66,1.27s0.22,1,0.66,1.301
		c0.44,0.299,1.376,0.623,2.81,0.969c1.434,0.348,2.514,0.834,3.24,1.461s1.09,1.55,1.09,2.77c0,1.221-0.459,2.21-1.379,2.971
		c-0.921,0.76-2.127,1.14-3.621,1.14c-2.187,0-4.127-0.753-5.82-2.261l1.48-1.779c1.414,1.227,2.881,1.84,4.4,1.84
		c0.76,0,1.363-0.163,1.811-0.49c0.445-0.326,0.67-0.76,0.67-1.3s-0.211-0.96-0.631-1.26s-1.143-0.573-2.17-0.82
		s-1.807-0.474-2.34-0.68s-1.007-0.477-1.42-0.81c-0.827-0.627-1.24-1.587-1.24-2.881c0-1.293,0.471-2.289,1.41-2.99
		c0.939-0.699,2.104-1.049,3.49-1.049c0.893,0,1.779,0.146,2.66,0.439c0.879,0.293,1.64,0.707,2.279,1.24l-1.26,1.779
		c-0.414-0.373-0.973-0.68-1.68-0.92S501.343,190.385,500.658,190.385z"/>
</g>
<g>
	<path fill="#010101" d="M438.341,43.534v11.82h-2.361v-11.82h-4.239v-2.16h10.84v2.16H438.341z"/>
	<path fill="#010101" d="M450.894,55.354h-2.399v-5.52l-5.2-8.46h2.58l3.82,6.36l3.82-6.36h2.58l-5.201,8.46V55.354z"/>
	<path fill="#010101" d="M466.9,42.594c0.973,0.813,1.46,2.066,1.46,3.76s-0.497,2.934-1.489,3.721
		c-0.994,0.786-2.518,1.18-4.57,1.18h-2.48v4.1h-2.359v-13.98h4.8C464.38,41.374,465.927,41.78,466.9,42.594z M465.23,48.363
		c0.473-0.5,0.71-1.233,0.71-2.2s-0.3-1.65-0.899-2.05c-0.601-0.4-1.541-0.6-2.82-0.6h-2.4v5.6h2.74
		C463.867,49.113,464.756,48.863,465.23,48.363z"/>
	<path fill="#010101" d="M480.306,41.374v2.22h-7.461v3.7h6.701v2.1h-6.701v3.739h7.701v2.221h-10.061v-13.98H480.306z"/>
	<path fill="#010101" d="M487.33,43.213c-0.688,0-1.25,0.14-1.689,0.42c-0.44,0.28-0.66,0.704-0.66,1.27c0,0.567,0.22,1,0.66,1.3
		c0.439,0.3,1.376,0.624,2.81,0.97c1.433,0.347,2.513,0.833,3.239,1.459c0.727,0.627,1.091,1.551,1.091,2.771s-0.46,2.21-1.38,2.97
		s-2.127,1.141-3.62,1.141c-2.187,0-4.127-0.754-5.82-2.26l1.479-1.78c1.414,1.227,2.881,1.84,4.4,1.84
		c0.76,0,1.363-0.163,1.811-0.489c0.446-0.327,0.67-0.761,0.67-1.301s-0.21-0.96-0.631-1.26c-0.42-0.301-1.143-0.573-2.17-0.82
		c-1.026-0.246-1.807-0.473-2.34-0.68s-1.006-0.477-1.42-0.81c-0.826-0.626-1.24-1.586-1.24-2.88s0.471-2.29,1.41-2.99
		c0.94-0.7,2.104-1.05,3.49-1.05c0.894,0,1.78,0.146,2.66,0.44s1.641,0.707,2.28,1.24l-1.261,1.78
		c-0.413-0.373-0.973-0.68-1.68-0.92C488.712,43.333,488.016,43.213,487.33,43.213z"/>
</g>
<g>
	<path fill="#010101" d="M593.898,230.193v-13.98h2.36v11.74h6.38v2.24H593.898z"/>
	<path fill="#010101" d="M614.228,216.213v2.221h-7.46v3.699h6.7v2.101h-6.7v3.739h7.7v2.221h-10.061v-13.98H614.228z"/>
	<path fill="#010101" d="M623.656,230.193h-2.639l-5.621-13.98h2.641l4.3,10.44l4.3-10.44h2.641L623.656,230.193z"/>
	<path fill="#010101" d="M640.57,216.213v2.221h-7.46v3.699h6.7v2.101h-6.7v3.739h7.7v2.221H630.75v-13.98H640.57z"/>
	<path fill="#010101" d="M643.312,230.193v-13.98h2.359v11.74h6.381v2.24H643.312z"/>
	<path fill="#010101" d="M658.63,218.053c-0.688,0-1.25,0.141-1.69,0.42c-0.44,0.281-0.66,0.704-0.66,1.271c0,0.567,0.22,1,0.66,1.3
		c0.44,0.301,1.376,0.624,2.81,0.971s2.514,0.833,3.24,1.459c0.727,0.627,1.09,1.551,1.09,2.771s-0.459,2.21-1.379,2.97
		c-0.921,0.76-2.127,1.141-3.621,1.141c-2.187,0-4.127-0.754-5.82-2.26l1.48-1.78c1.414,1.227,2.881,1.84,4.4,1.84
		c0.76,0,1.363-0.163,1.811-0.489c0.445-0.327,0.67-0.761,0.67-1.301s-0.211-0.96-0.631-1.26c-0.42-0.301-1.143-0.573-2.17-0.82
		c-1.027-0.246-1.807-0.473-2.34-0.68s-1.007-0.477-1.42-0.811c-0.827-0.626-1.24-1.586-1.24-2.879c0-1.294,0.471-2.291,1.41-2.99
		c0.939-0.701,2.104-1.051,3.49-1.051c0.893,0,1.779,0.146,2.66,0.44c0.879,0.294,1.64,0.706,2.279,1.239l-1.26,1.781
		c-0.414-0.373-0.973-0.681-1.68-0.92C660.013,218.174,659.316,218.053,658.63,218.053z"/>
</g>
<g>
	<path fill="#A6A8AC" d="M26.926,158.617l1.872-6.037h1.272l1.872,6.037l2.112-6.037h1.524l-2.928,8.389h-1.404l-1.764-5.748h-0.096
		l-1.764,5.748h-1.404l-2.928-8.389h1.524L26.926,158.617z"/>
	<path fill="#A6A8AC" d="M41.15,160.969h-1.224v-0.852c-0.528,0.632-1.236,0.947-2.124,0.947c-0.664,0-1.214-0.188-1.65-0.563
		s-0.654-0.878-0.654-1.507c0-0.627,0.232-1.098,0.696-1.409s1.092-0.468,1.884-0.468h1.74v-0.24c0-0.848-0.472-1.271-1.416-1.271
		c-0.592,0-1.208,0.215-1.848,0.647l-0.6-0.841c0.775-0.615,1.656-0.924,2.64-0.924c0.752,0,1.366,0.19,1.842,0.57
		c0.476,0.381,0.714,0.979,0.714,1.794V160.969z M39.806,158.593v-0.54h-1.512c-0.968,0-1.452,0.305-1.452,0.912
		c0,0.312,0.12,0.55,0.36,0.714c0.24,0.164,0.574,0.246,1.002,0.246c0.428,0,0.802-0.12,1.122-0.36S39.806,159.001,39.806,158.593z"
		/>
	<path fill="#A6A8AC" d="M43.294,163.513c-0.584,0-1.112-0.212-1.584-0.636l0.612-1.092c0.28,0.264,0.57,0.396,0.87,0.396
		c0.3,0,0.544-0.108,0.732-0.323c0.188-0.217,0.282-0.453,0.282-0.709c0-0.111-0.86-2.3-2.58-6.563h1.44l1.908,4.704l1.908-4.704
		h1.44l-3.096,7.584c-0.184,0.415-0.448,0.743-0.792,0.983C44.09,163.393,43.71,163.513,43.294,163.513z"/>
	<path fill="#A6A8AC" d="M17.67,166.98h1.416v8.389H17.55l-4.752-6.121v6.121h-1.416v-8.389h1.416l4.872,6.264V166.98z"/>
	<path fill="#A6A8AC" d="M26.256,174.511c-0.64,0.636-1.44,0.954-2.4,0.954s-1.76-0.318-2.4-0.954
		c-0.64-0.636-0.96-1.414-0.96-2.334s0.32-1.698,0.96-2.334c0.64-0.636,1.44-0.954,2.4-0.954s1.76,0.318,2.4,0.954
		s0.96,1.414,0.96,2.334S26.896,173.875,26.256,174.511z M22.41,173.683c0.38,0.388,0.862,0.582,1.446,0.582
		s1.066-0.194,1.446-0.582s0.57-0.89,0.57-1.506s-0.19-1.118-0.57-1.507c-0.38-0.387-0.862-0.581-1.446-0.581
		s-1.066,0.194-1.446,0.581c-0.38,0.389-0.57,0.891-0.57,1.507S22.03,173.295,22.41,173.683z"/>
	<path fill="#A6A8AC" d="M28.956,174.553c-0.6-0.607-0.9-1.408-0.9-2.4s0.308-1.783,0.924-2.375c0.616-0.593,1.35-0.889,2.202-0.889
		s1.538,0.359,2.058,1.08v-3.504h1.344v8.904H33.24v-0.961c-0.496,0.705-1.22,1.057-2.172,1.057
		C30.26,175.465,29.556,175.16,28.956,174.553z M29.4,172.207c0,0.611,0.196,1.109,0.588,1.494c0.392,0.383,0.852,0.576,1.38,0.576
		s0.976-0.194,1.344-0.582c0.368-0.389,0.552-0.887,0.552-1.494c0-0.608-0.184-1.117-0.552-1.524
		c-0.368-0.408-0.82-0.612-1.356-0.612c-0.536,0-0.996,0.204-1.38,0.612C29.592,171.084,29.4,171.595,29.4,172.207z"/>
	<path fill="#A6A8AC" d="M42.153,172.765h-5.004c0.032,0.464,0.244,0.838,0.636,1.122s0.84,0.426,1.344,0.426
		c0.8,0,1.408-0.252,1.824-0.756l0.768,0.84c-0.688,0.713-1.584,1.068-2.688,1.068c-0.896,0-1.658-0.299-2.286-0.895
		s-0.942-1.396-0.942-2.4c0-1.003,0.32-1.801,0.96-2.393c0.64-0.593,1.394-0.889,2.262-0.889c0.868,0,1.606,0.262,2.214,0.786
		s0.912,1.246,0.912,2.166V172.765z M37.149,171.709h3.66c0-0.536-0.168-0.948-0.504-1.236s-0.75-0.432-1.242-0.432
		c-0.492,0-0.934,0.149-1.326,0.449C37.345,170.791,37.149,171.197,37.149,171.709z"/>
	<path fill="#A6A8AC" d="M47.854,173.461c0,0.607-0.22,1.094-0.66,1.457c-0.44,0.365-1.004,0.547-1.692,0.547
		c-0.464,0-0.946-0.084-1.446-0.252c-0.5-0.168-0.942-0.404-1.326-0.708l0.648-1.044c0.744,0.56,1.464,0.84,2.16,0.84
		c0.304,0,0.544-0.07,0.72-0.21c0.176-0.14,0.264-0.318,0.264-0.534c0-0.32-0.424-0.607-1.272-0.863
		c-0.064-0.025-0.112-0.041-0.144-0.049c-1.328-0.359-1.992-0.96-1.992-1.8c0-0.592,0.23-1.065,0.69-1.422
		c0.46-0.356,1.058-0.534,1.794-0.534c0.736,0,1.432,0.216,2.088,0.648l-0.504,0.996c-0.521-0.344-1.084-0.517-1.692-0.517
		c-0.32,0-0.58,0.058-0.78,0.174c-0.2,0.116-0.3,0.29-0.3,0.522c0,0.208,0.104,0.359,0.312,0.455
		c0.144,0.072,0.346,0.141,0.606,0.205c0.26,0.064,0.49,0.127,0.69,0.191c0.2,0.064,0.394,0.137,0.582,0.217s0.39,0.191,0.606,0.336
		C47.639,172.404,47.854,172.853,47.854,173.461z"/>
</g>
<g>
	<path fill="#A6A8AC" d="M160.747,180.775c-0.412,0-0.75,0.084-1.014,0.252s-0.396,0.422-0.396,0.762
		c0,0.341,0.132,0.601,0.396,0.78c0.264,0.181,0.826,0.374,1.686,0.582s1.508,0.501,1.944,0.876c0.436,0.377,0.654,0.93,0.654,1.662
		s-0.276,1.326-0.828,1.782c-0.552,0.456-1.276,0.685-2.172,0.685c-1.312,0-2.476-0.453-3.492-1.356l0.888-1.068
		c0.848,0.736,1.728,1.104,2.64,1.104c0.456,0,0.818-0.098,1.086-0.295c0.268-0.195,0.402-0.455,0.402-0.779
		s-0.126-0.576-0.378-0.756s-0.686-0.344-1.302-0.492s-1.084-0.284-1.404-0.408c-0.32-0.124-0.604-0.285-0.852-0.486
		c-0.496-0.375-0.744-0.951-0.744-1.728s0.282-1.374,0.846-1.794s1.262-0.63,2.094-0.63c0.536,0,1.068,0.088,1.596,0.264
		c0.528,0.177,0.984,0.425,1.368,0.744l-0.756,1.067c-0.248-0.223-0.584-0.407-1.008-0.551
		C161.576,180.848,161.158,180.775,160.747,180.775z"/>
	<path fill="#A6A8AC" d="M166.626,184.604v3.456h-1.344v-8.892h1.344v3.672c0.192-0.393,0.482-0.7,0.87-0.924
		c0.388-0.225,0.806-0.336,1.254-0.336c0.72,0,1.302,0.22,1.746,0.66c0.444,0.439,0.666,1.075,0.666,1.907v3.912h-1.344v-3.504
		c0-1.177-0.488-1.765-1.464-1.765c-0.464,0-0.868,0.154-1.212,0.463C166.798,183.562,166.626,184.012,166.626,184.604z"/>
	<path fill="#A6A8AC" d="M177.906,188.06h-1.224v-0.853c-0.528,0.633-1.236,0.949-2.124,0.949c-0.664,0-1.214-0.188-1.65-0.564
		s-0.654-0.878-0.654-1.506c0-0.629,0.232-1.098,0.696-1.41s1.092-0.469,1.884-0.469h1.74v-0.239c0-0.849-0.472-1.272-1.416-1.272
		c-0.592,0-1.208,0.217-1.848,0.648l-0.6-0.84c0.775-0.616,1.656-0.924,2.64-0.924c0.752,0,1.366,0.189,1.842,0.569
		c0.476,0.38,0.714,0.978,0.714,1.794V188.06z M176.562,185.684v-0.54h-1.512c-0.968,0-1.452,0.304-1.452,0.912
		c0,0.312,0.12,0.55,0.36,0.714c0.24,0.164,0.574,0.246,1.002,0.246c0.428,0,0.802-0.12,1.122-0.359
		C176.402,186.416,176.562,186.092,176.562,185.684z"/>
	<path fill="#A6A8AC" d="M182.88,181.58c0.856,0,1.588,0.295,2.196,0.888c0.608,0.592,0.912,1.38,0.912,2.364
		c0,0.983-0.302,1.783-0.906,2.399c-0.604,0.616-1.308,0.925-2.112,0.925c-0.804,0-1.526-0.353-2.166-1.057v3.288h-1.344v-8.712
		h1.344v1.115C181.333,181.983,182.024,181.58,182.88,181.58z M180.78,184.879c0,0.609,0.184,1.107,0.552,1.494
		c0.368,0.389,0.816,0.582,1.344,0.582s0.988-0.191,1.38-0.576c0.392-0.383,0.588-0.881,0.588-1.493s-0.192-1.12-0.576-1.524
		c-0.384-0.404-0.844-0.605-1.38-0.605c-0.536,0-0.988,0.201-1.356,0.605C180.964,183.766,180.78,184.271,180.78,184.879z"/>
	<path fill="#A6A8AC" d="M193.182,185.455h-5.004c0.032,0.465,0.244,0.838,0.636,1.123c0.392,0.283,0.84,0.426,1.344,0.426
		c0.8,0,1.408-0.252,1.824-0.756l0.768,0.84c-0.688,0.712-1.584,1.068-2.688,1.068c-0.896,0-1.658-0.299-2.286-0.895
		s-0.942-1.396-0.942-2.4s0.32-1.802,0.96-2.394c0.64-0.593,1.394-0.888,2.262-0.888c0.868,0,1.606,0.262,2.214,0.785
		c0.608,0.524,0.912,1.246,0.912,2.166V185.455z M188.178,184.399h3.66c0-0.536-0.168-0.948-0.504-1.235
		c-0.336-0.289-0.75-0.433-1.242-0.433c-0.492,0-0.934,0.149-1.326,0.45C188.374,183.481,188.178,183.888,188.178,184.399z"/>
	<path fill="#A6A8AC" d="M164.904,196.795c0,1.385-0.604,2.256-1.812,2.617l2.196,3.047h-1.8l-2.004-2.819h-1.86v2.819h-1.416
		v-8.388h3.12c1.28,0,2.196,0.216,2.748,0.647C164.628,195.151,164.904,195.844,164.904,196.795z M163.021,197.983
		c0.288-0.247,0.432-0.646,0.432-1.194c0-0.547-0.148-0.924-0.444-1.127c-0.296-0.205-0.824-0.307-1.584-0.307h-1.8v3h1.764
		C162.188,198.355,162.732,198.231,163.021,197.983z"/>
	<path fill="#A6A8AC" d="M172.241,199.855h-5.004c0.032,0.464,0.244,0.838,0.636,1.122s0.84,0.426,1.344,0.426
		c0.8,0,1.408-0.252,1.824-0.756l0.768,0.84c-0.688,0.712-1.584,1.068-2.688,1.068c-0.896,0-1.658-0.298-2.286-0.894
		c-0.628-0.597-0.942-1.396-0.942-2.4s0.32-1.803,0.96-2.395s1.394-0.888,2.262-0.888c0.868,0,1.606,0.263,2.214,0.786
		s0.912,1.246,0.912,2.166V199.855z M167.237,198.799h3.66c0-0.535-0.168-0.947-0.504-1.235s-0.75-0.433-1.242-0.433
		c-0.492,0-0.934,0.15-1.326,0.451C167.433,197.881,167.237,198.287,167.237,198.799z"/>
	<path fill="#A6A8AC" d="M174.815,202.459h-1.344v-8.903h1.344V202.459z"/>
	<path fill="#A6A8AC" d="M181.631,202.459h-1.224v-0.852c-0.528,0.633-1.236,0.948-2.124,0.948c-0.664,0-1.214-0.188-1.65-0.563
		c-0.436-0.377-0.654-0.879-0.654-1.507s0.232-1.098,0.696-1.409c0.464-0.312,1.092-0.469,1.884-0.469h1.74v-0.24
		c0-0.848-0.472-1.271-1.416-1.271c-0.592,0-1.208,0.216-1.848,0.648l-0.6-0.841c0.775-0.616,1.656-0.924,2.64-0.924
		c0.752,0,1.366,0.19,1.842,0.569c0.476,0.381,0.714,0.979,0.714,1.795V202.459z M180.287,200.084v-0.541h-1.512
		c-0.968,0-1.452,0.305-1.452,0.912c0,0.312,0.12,0.551,0.36,0.715c0.24,0.164,0.574,0.246,1.002,0.246
		c0.428,0,0.802-0.121,1.122-0.36C180.126,200.815,180.287,200.492,180.287,200.084z"/>
	<path fill="#A6A8AC" d="M184.689,197.155v3.24c0,0.304,0.08,0.546,0.24,0.726c0.16,0.18,0.384,0.271,0.672,0.271
		s0.564-0.14,0.828-0.42l0.552,0.948c-0.472,0.424-0.994,0.636-1.566,0.636c-0.572,0-1.06-0.198-1.464-0.595
		c-0.404-0.396-0.606-0.93-0.606-1.602v-3.204h-0.804v-1.079h0.804v-2.005h1.344v2.005h1.68v1.079H184.689z"/>
	<path fill="#A6A8AC" d="M187.858,194.804c-0.168-0.169-0.252-0.368-0.252-0.601c0-0.231,0.084-0.432,0.252-0.6
		s0.368-0.252,0.6-0.252s0.432,0.084,0.6,0.252s0.252,0.368,0.252,0.6c0,0.232-0.084,0.432-0.252,0.601
		c-0.168,0.168-0.368,0.252-0.6,0.252S188.026,194.972,187.858,194.804z M189.118,202.459h-1.344v-6.383h1.344V202.459z"/>
	<path fill="#A6A8AC" d="M196.045,201.602c-0.64,0.636-1.44,0.954-2.4,0.954s-1.76-0.318-2.4-0.954
		c-0.64-0.637-0.96-1.414-0.96-2.334s0.32-1.698,0.96-2.334c0.64-0.637,1.44-0.954,2.4-0.954s1.76,0.317,2.4,0.954
		c0.64,0.636,0.96,1.414,0.96,2.334S196.685,200.965,196.045,201.602z M192.199,200.773c0.38,0.389,0.862,0.582,1.446,0.582
		s1.066-0.193,1.446-0.582c0.38-0.388,0.57-0.89,0.57-1.506s-0.19-1.118-0.57-1.506c-0.38-0.389-0.862-0.582-1.446-0.582
		s-1.066,0.193-1.446,0.582c-0.38,0.388-0.57,0.89-0.57,1.506S191.819,200.386,192.199,200.773z"/>
	<path fill="#A6A8AC" d="M199.564,199.004v3.455h-1.344v-6.383h1.344v1.163c0.216-0.392,0.514-0.7,0.894-0.924
		s0.79-0.336,1.23-0.336c0.72,0,1.302,0.22,1.746,0.66s0.666,1.075,0.666,1.907v3.912h-1.344v-3.504
		c0-1.176-0.488-1.764-1.464-1.764c-0.464,0-0.868,0.154-1.212,0.462C199.736,197.961,199.564,198.412,199.564,199.004z"/>
	<path fill="#A6A8AC" d="M210.188,200.551c0,0.609-0.22,1.095-0.66,1.459c-0.44,0.363-1.004,0.546-1.692,0.546
		c-0.464,0-0.946-0.084-1.446-0.252c-0.5-0.169-0.942-0.404-1.326-0.708l0.648-1.045c0.744,0.561,1.464,0.841,2.16,0.841
		c0.304,0,0.544-0.069,0.72-0.21c0.176-0.141,0.264-0.318,0.264-0.534c0-0.319-0.424-0.608-1.272-0.864
		c-0.064-0.023-0.112-0.039-0.144-0.048c-1.328-0.36-1.992-0.96-1.992-1.8c0-0.592,0.23-1.066,0.69-1.422
		c0.46-0.355,1.058-0.534,1.794-0.534c0.736,0,1.432,0.216,2.088,0.647l-0.504,0.996c-0.521-0.344-1.084-0.516-1.692-0.516
		c-0.32,0-0.58,0.059-0.78,0.174c-0.2,0.116-0.3,0.291-0.3,0.522c0,0.208,0.104,0.36,0.312,0.456
		c0.144,0.072,0.346,0.14,0.606,0.203c0.26,0.064,0.49,0.129,0.69,0.192c0.2,0.064,0.394,0.136,0.582,0.216s0.39,0.192,0.606,0.336
		C209.972,199.496,210.188,199.943,210.188,200.551z"/>
</g>
<g>
	<path fill="#A6A8AC" d="M272.954,278.877v7.092h-1.416v-7.092h-2.544v-1.297h6.504v1.297H272.954z"/>
	<path fill="#A6A8AC" d="M280.745,285.969h-1.224v-0.852c-0.528,0.632-1.236,0.947-2.124,0.947c-0.664,0-1.214-0.188-1.65-0.563
		s-0.654-0.878-0.654-1.507c0-0.627,0.232-1.098,0.696-1.409s1.092-0.468,1.884-0.468h1.74v-0.24c0-0.848-0.472-1.271-1.416-1.271
		c-0.592,0-1.208,0.215-1.848,0.647l-0.6-0.841c0.775-0.615,1.656-0.924,2.64-0.924c0.752,0,1.366,0.19,1.842,0.57
		c0.476,0.381,0.714,0.979,0.714,1.794V285.969z M279.401,283.593v-0.54h-1.512c-0.968,0-1.452,0.305-1.452,0.912
		c0,0.312,0.12,0.55,0.36,0.714c0.24,0.164,0.574,0.246,1.002,0.246c0.428,0,0.802-0.12,1.122-0.36S279.401,284.001,279.401,283.593
		z"/>
	<path fill="#A6A8AC" d="M288.193,279.585v5.567c0,1.129-0.306,1.975-0.918,2.539c-0.612,0.563-1.398,0.846-2.358,0.846
		s-1.828-0.301-2.604-0.9l0.636-1.02c0.624,0.472,1.254,0.707,1.89,0.707c0.636,0,1.14-0.164,1.512-0.492
		c0.372-0.328,0.558-0.852,0.558-1.571v-0.815c-0.2,0.375-0.486,0.676-0.858,0.899s-0.79,0.336-1.254,0.336
		c-0.848,0-1.544-0.296-2.088-0.888c-0.544-0.592-0.816-1.328-0.816-2.208s0.271-1.616,0.816-2.208
		c0.544-0.592,1.238-0.889,2.082-0.889c0.844,0,1.53,0.349,2.058,1.045v-0.948H288.193z M283.213,282.531
		c0,0.523,0.162,0.976,0.486,1.355c0.324,0.38,0.76,0.57,1.308,0.57s0.992-0.184,1.332-0.553c0.34-0.367,0.51-0.826,0.51-1.373
		c0-0.549-0.172-1.012-0.516-1.393c-0.344-0.38-0.788-0.57-1.332-0.57c-0.544,0-0.978,0.196-1.302,0.588
		C283.375,281.549,283.213,282.007,283.213,282.531z"/>
	<path fill="#A6A8AC" d="M294.364,284.061c0,0.608-0.22,1.094-0.66,1.458s-1.004,0.546-1.692,0.546
		c-0.464,0-0.946-0.084-1.446-0.252c-0.5-0.168-0.942-0.404-1.326-0.707l0.648-1.045c0.744,0.561,1.464,0.84,2.16,0.84
		c0.304,0,0.544-0.069,0.72-0.209c0.176-0.141,0.264-0.318,0.264-0.535c0-0.319-0.424-0.607-1.272-0.863
		c-0.064-0.024-0.112-0.04-0.144-0.049c-1.328-0.359-1.992-0.959-1.992-1.799c0-0.592,0.23-1.066,0.69-1.422
		c0.46-0.356,1.058-0.535,1.794-0.535c0.736,0,1.432,0.217,2.088,0.648l-0.504,0.996c-0.521-0.344-1.084-0.516-1.692-0.516
		c-0.32,0-0.58,0.058-0.78,0.174c-0.2,0.115-0.3,0.29-0.3,0.521c0,0.209,0.104,0.36,0.312,0.456c0.144,0.072,0.346,0.14,0.606,0.204
		c0.26,0.064,0.49,0.128,0.69,0.191c0.2,0.064,0.394,0.137,0.582,0.217s0.39,0.191,0.606,0.336
		C294.148,283.005,294.364,283.453,294.364,284.061z"/>
</g>
</svg>
